<svg xmlns="http://www.w3.org/2000/svg" width="30" height="30" fill="none"><path fill="#fff" d="M12.589 14.431s2.364-.18 2.364-3.01c0-2.826-1.603-4.22-4.055-4.22L2.5 7.188v15.624h8.593s4.297.136 4.297-4.687c0 0 .316-3.694-2.801-3.694zm-6.964-4.9h4.297s1.47.024 1.47 1.93c0 1.976-1.47 1.976-1.47 1.976H5.625V9.531zm4.687 10.938H5.625V15.78h4.687s2.344.024 2.344 2.344-2.006 2.344-2.344 2.344zm11.72-9.374c-5.87 0-5.86 5.859-5.86 5.859s-.39 5.86 5.86 5.86c0 0 5.468 0 5.468-4.688h-3.125s0 2.343-2.343 2.343c0 0-2.344 0-2.344-3.125H27.5c0-1.562 0-6.25-5.468-6.25zm-2.344 4.687s-.052-2.344 2.344-2.344c2.394 0 2.343 2.344 2.343 2.344h-4.687zm5.471-7.032h-6.25v1.563h6.25V8.75z"/></svg>