<svg xmlns="http://www.w3.org/2000/svg" xmlns:xlink="http://www.w3.org/1999/xlink" viewBox="0 0 115 46"><path d="M 110.715 18.056 L 110.715 29.183 L 107.002 29.183 L 107.002 27.159 C 106.689 27.922 106.212 28.503 105.571 28.898 C 104.931 29.294 104.138 29.493 103.2 29.493 C 102.36 29.493 101.628 29.285 101.002 28.869 C 100.378 28.452 99.895 27.879 99.554 27.152 C 99.216 26.425 99.046 25.605 99.046 24.686 C 99.035 23.739 99.216 22.889 99.584 22.136 C 99.952 21.384 100.474 20.797 101.145 20.374 C 101.816 19.953 102.583 19.741 103.442 19.741 C 105.21 19.741 106.397 20.523 107.002 22.091 L 107.002 18.056 Z M 106.448 26.04 C 106.828 25.664 107.015 25.176 107.015 24.58 C 107.015 23.984 106.831 23.534 106.463 23.173 C 106.095 22.814 105.59 22.632 104.957 22.632 C 104.324 22.632 103.831 22.816 103.457 23.183 C 103.082 23.549 102.896 24.024 102.896 24.612 C 102.896 25.2 103.082 25.678 103.457 26.049 C 103.831 26.421 104.326 26.605 104.943 26.605 C 105.566 26.603 106.07 26.414 106.448 26.04 Z M 98.381 20.312 L 98.381 23.651 C 97.996 23.392 97.498 23.264 96.882 23.264 C 96.074 23.264 95.452 23.512 95.018 24.013 C 94.583 24.512 94.367 25.289 94.367 26.341 L 94.367 29.183 L 90.655 29.183 L 90.655 20.142 L 94.291 20.142 L 94.291 23.016 C 94.492 21.966 94.82 21.191 95.27 20.69 C 95.717 20.19 96.296 19.941 97.003 19.941 C 97.538 19.941 97.997 20.065 98.382 20.312 Z M 80.404 28.844 C 79.53 28.411 78.865 27.82 78.405 27.066 C 77.946 26.314 77.715 25.475 77.715 24.547 C 77.715 23.619 77.944 22.792 78.405 22.065 C 78.865 21.338 79.528 20.768 80.399 20.356 C 81.265 19.943 82.302 19.738 83.504 19.738 C 84.706 19.738 85.742 19.943 86.611 20.356 C 87.479 20.769 88.142 21.335 88.595 22.057 C 89.05 22.778 89.278 23.606 89.278 24.546 C 89.278 25.484 89.05 26.311 88.595 27.064 C 88.141 27.817 87.476 28.409 86.602 28.842 C 85.727 29.274 84.694 29.491 83.502 29.491 C 82.311 29.491 81.277 29.277 80.404 28.844 Z M 85.009 26.102 C 85.377 25.726 85.563 25.228 85.563 24.612 C 85.563 23.993 85.379 23.5 85.009 23.135 C 84.641 22.769 84.139 22.586 83.503 22.586 C 82.867 22.586 82.348 22.77 81.979 23.135 C 81.611 23.501 81.427 23.993 81.427 24.611 C 81.427 25.229 81.611 25.726 81.979 26.101 C 82.347 26.476 82.854 26.666 83.503 26.666 C 84.139 26.664 84.641 26.476 85.009 26.101 Z M 69.639 28.844 C 68.77 28.411 68.116 27.824 67.678 27.082 C 67.24 26.34 67.019 25.504 67.019 24.578 C 67.019 23.652 67.246 22.821 67.701 22.09 C 68.156 21.359 68.823 20.784 69.702 20.367 C 70.581 19.949 71.63 19.741 72.853 19.741 C 74.368 19.741 75.626 20.067 76.625 20.717 L 76.625 23.545 C 76.246 23.284 75.831 23.08 75.392 22.941 C 74.905 22.784 74.395 22.706 73.883 22.709 C 72.943 22.709 72.21 22.884 71.68 23.235 C 71.15 23.586 70.883 24.042 70.883 24.611 C 70.883 25.179 71.141 25.621 71.656 25.979 C 72.171 26.335 72.916 26.514 73.899 26.514 C 74.402 26.514 74.9 26.439 75.392 26.292 C 75.834 26.161 76.259 25.976 76.655 25.741 L 76.655 28.477 C 75.546 29.158 74.258 29.497 72.791 29.497 C 71.559 29.493 70.507 29.276 69.639 28.844 Z M 58.912 29.169 C 58.131 28.969 57.384 28.651 56.699 28.226 L 56.699 25.659 C 57.195 26.05 57.859 26.372 58.693 26.625 C 59.526 26.877 60.331 27.004 61.11 27.004 C 61.474 27.004 61.749 26.954 61.934 26.858 C 62.122 26.76 62.215 26.643 62.215 26.508 C 62.219 26.364 62.164 26.225 62.062 26.122 C 61.961 26.018 61.764 25.933 61.472 25.859 L 59.654 25.443 C 58.614 25.194 57.874 24.852 57.436 24.413 C 56.996 23.975 56.778 23.401 56.778 22.691 C 56.778 22.093 56.967 21.574 57.353 21.13 C 57.737 20.686 58.282 20.343 58.989 20.103 C 59.698 19.86 60.524 19.74 61.475 19.74 C 62.324 19.74 63.101 19.832 63.808 20.017 C 64.516 20.203 65.1 20.439 65.566 20.728 L 65.566 23.155 C 65.052 22.85 64.499 22.618 63.922 22.465 C 63.296 22.295 62.651 22.21 62.002 22.212 C 61.052 22.212 60.579 22.378 60.579 22.707 C 60.579 22.861 60.652 22.977 60.799 23.053 C 60.946 23.131 61.216 23.211 61.609 23.294 L 63.124 23.573 C 64.114 23.746 64.851 24.053 65.336 24.49 C 65.821 24.928 66.063 25.576 66.063 26.432 C 66.063 27.37 65.663 28.115 64.859 28.667 C 64.057 29.219 62.918 29.493 61.442 29.493 C 60.588 29.494 59.738 29.385 58.912 29.168 Z M 51.341 22.273 C 52.474 22.771 53.881 22.793 55.042 22.273 L 55.042 29.232 L 51.341 29.232 Z M 53.193 21.105 C 54.215 21.105 55.043 20.345 55.043 19.408 C 55.043 18.473 54.215 17.713 53.193 17.713 C 52.172 17.713 51.342 18.473 51.342 19.408 C 51.342 20.345 52.17 21.104 53.193 21.104 Z M 37.594 18.363 L 43.502 18.363 C 44.927 18.363 46.13 18.591 47.117 19.044 C 48.101 19.497 48.84 20.13 49.329 20.936 C 49.818 21.744 50.065 22.671 50.065 23.713 C 50.065 24.754 49.809 25.657 49.298 26.486 C 48.788 27.316 48.011 27.971 46.965 28.455 C 45.921 28.939 44.626 29.181 43.079 29.181 L 37.594 29.181 L 37.594 18.365 Z M 43.017 26.432 C 43.976 26.432 44.715 26.187 45.229 25.699 C 45.744 25.208 46.002 24.542 46.002 23.697 C 46.002 22.913 45.772 22.288 45.314 21.821 C 44.855 21.352 44.16 21.116 43.231 21.116 L 41.382 21.116 L 41.382 26.433 L 43.017 26.433 Z M 31.715 30.646 C 29.331 32.427 27.02 33.505 24.746 34.212 C 24.182 33.438 23.683 32.617 23.256 31.759 C 24.073 31.449 24.86 31.067 25.608 30.616 C 25.415 30.47 25.222 30.318 25.033 30.161 C 20.558 32.275 15.64 32.275 11.111 30.161 C 10.923 30.318 10.731 30.47 10.535 30.616 C 11.282 31.065 12.068 31.447 12.884 31.757 C 12.456 32.615 11.957 33.436 11.392 34.211 C 9.121 33.503 6.812 32.424 4.43 30.646 C 3.942 25.435 4.917 20.147 8.509 14.723 C 10.315 13.877 12.227 13.277 14.192 12.938 C 14.438 13.378 14.73 13.973 14.928 14.445 C 17.013 14.127 19.135 14.127 21.221 14.445 C 21.417 13.973 21.703 13.378 21.948 12.937 C 23.91 13.276 25.819 13.875 27.624 14.718 C 30.739 19.364 32.287 24.604 31.716 30.646 Z M 15.974 24.629 C 15.999 23.084 14.884 21.817 13.5 21.817 C 12.117 21.817 11.025 23.086 11.025 24.63 C 11.025 26.175 12.14 27.441 13.5 27.441 C 14.86 27.441 15.977 26.173 15.974 24.63 Z M 25.117 24.629 C 25.142 23.084 24.027 21.817 22.643 21.817 C 21.26 21.817 20.168 23.086 20.168 24.63 C 20.168 26.175 21.283 27.441 22.643 27.441 C 24.003 27.441 25.117 26.173 25.117 24.63 Z" fill="rgb(60,60,67)"></path></svg>