<svg xmlns="http://www.w3.org/2000/svg" xmlns:xlink="http://www.w3.org/1999/xlink" viewBox="0 0 115 46"><path d="M 16.042 32.948 C 25.642 32.948 30.892 24.997 30.892 18.102 C 30.892 17.877 30.887 17.651 30.877 17.428 C 31.899 16.689 32.78 15.774 33.481 14.726 C 32.528 15.148 31.518 15.425 30.483 15.547 C 31.573 14.895 32.388 13.869 32.778 12.661 C 31.753 13.269 30.633 13.697 29.464 13.928 C 27.849 12.2 25.274 11.774 23.189 12.89 C 21.104 14.005 20.029 16.384 20.57 18.686 C 16.373 18.476 12.463 16.494 9.812 13.234 C 9.348 14.03 9.105 14.935 9.105 15.856 C 9.103 17.602 9.975 19.232 11.427 20.2 C 10.598 20.175 9.787 19.951 9.063 19.547 L 9.063 19.614 C 9.063 22.099 10.815 24.238 13.25 24.73 C 12.482 24.938 11.676 24.969 10.894 24.819 C 11.577 26.945 13.537 28.402 15.77 28.444 C 13.92 29.894 11.637 30.681 9.286 30.676 C 8.866 30.676 8.449 30.653 8.042 30.604 C 10.428 32.137 13.206 32.951 16.042 32.948 M 39.174 17.164 L 42.298 17.164 L 42.298 19.842 L 44.672 19.842 L 44.672 22.266 L 42.298 22.266 L 42.298 26.86 C 42.298 27.341 42.418 27.674 42.657 27.859 C 42.898 28.046 43.264 28.138 43.758 28.138 C 43.955 28.138 44.142 28.134 44.321 28.123 C 44.5 28.114 44.637 28.105 44.732 28.099 L 44.732 30.421 C 44.151 30.505 43.564 30.549 42.977 30.552 C 42.057 30.552 41.312 30.449 40.74 30.243 C 40.168 30.037 39.752 29.704 39.493 29.244 C 39.232 28.784 39.102 28.179 39.102 27.429 L 39.102 22.266 L 37.45 22.266 L 37.45 19.842 L 39.174 19.842 Z M 59.53 30.513 L 56.133 30.513 L 54.276 23.19 L 54.175 23.19 L 52.349 30.513 L 48.921 30.513 L 46.11 19.679 L 49.447 19.679 L 50.806 27.337 L 50.939 27.337 L 52.723 19.679 L 55.746 19.679 L 57.572 27.337 L 57.704 27.337 L 59.084 19.679 L 62.299 19.679 L 59.53 30.512 Z M 64.531 15.399 C 64.883 15.102 65.349 14.953 65.931 14.953 C 66.512 14.953 66.97 15.102 67.325 15.399 C 67.68 15.697 67.857 16.092 67.857 16.586 C 67.857 17.079 67.682 17.463 67.33 17.757 C 66.979 18.051 66.511 18.199 65.931 18.199 C 65.349 18.199 64.891 18.051 64.536 17.757 C 64.181 17.463 64.003 17.072 64.003 16.586 C 64.003 16.098 64.179 15.696 64.531 15.399 Z M 64.319 19.68 L 67.554 19.68 L 67.554 30.513 L 64.317 30.513 L 64.317 19.679 Z M 71.418 17.164 L 74.542 17.164 L 74.542 19.842 L 76.916 19.842 L 76.916 22.266 L 74.542 22.266 L 74.542 26.86 C 74.542 27.341 74.662 27.674 74.902 27.859 C 75.142 28.046 75.509 28.138 76.002 28.138 C 76.199 28.138 76.386 28.134 76.565 28.123 C 76.745 28.114 76.882 28.105 76.976 28.099 L 76.976 30.421 C 76.395 30.505 75.808 30.549 75.221 30.552 C 74.301 30.552 73.556 30.449 72.985 30.243 C 72.413 30.037 71.997 29.704 71.737 29.244 C 71.477 28.784 71.347 28.179 71.347 27.429 L 71.347 22.266 L 69.693 22.266 L 69.693 19.842 L 71.418 19.842 Z M 80.223 17.164 L 83.346 17.164 L 83.346 19.842 L 85.72 19.842 L 85.72 22.266 L 83.346 22.266 L 83.346 26.86 C 83.346 27.341 83.466 27.674 83.706 27.859 C 83.946 28.046 84.313 28.138 84.807 28.138 C 85.003 28.138 85.191 28.134 85.37 28.123 C 85.549 28.114 85.686 28.105 85.781 28.099 L 85.781 30.421 C 85.2 30.505 84.614 30.549 84.026 30.552 C 83.106 30.552 82.361 30.449 81.789 30.243 C 81.218 30.037 80.802 29.704 80.541 29.244 C 80.281 28.784 80.151 28.179 80.151 27.429 L 80.151 22.266 L 78.498 22.266 L 78.498 19.842 L 80.222 19.842 L 80.222 17.164 Z M 90.056 30.142 C 89.292 29.77 88.662 29.171 88.251 28.427 C 87.821 27.667 87.607 26.725 87.607 25.603 L 87.607 24.568 C 87.607 23.438 87.831 22.497 88.281 21.743 C 88.705 21.013 89.335 20.423 90.092 20.049 C 90.849 19.673 91.687 19.486 92.607 19.486 C 93.588 19.486 94.45 19.689 95.194 20.095 C 95.933 20.496 96.539 21.104 96.939 21.844 C 97.357 22.604 97.567 23.512 97.567 24.568 L 97.567 25.765 L 90.751 25.765 L 90.751 26.261 C 90.751 26.883 90.938 27.382 91.314 27.757 C 91.689 28.133 92.164 28.32 92.739 28.32 C 93.063 28.32 93.356 28.272 93.616 28.173 C 93.876 28.076 94.087 27.939 94.249 27.763 C 94.412 27.587 94.506 27.387 94.534 27.165 L 97.495 27.165 C 97.475 27.53 97.372 27.919 97.186 28.33 C 97 28.744 96.718 29.131 96.34 29.492 C 95.961 29.855 95.476 30.148 94.884 30.376 C 94.293 30.601 93.581 30.716 92.749 30.716 C 91.728 30.716 90.83 30.524 90.055 30.143 Z M 94.474 23.95 L 94.474 23.879 C 94.474 23.466 94.398 23.105 94.245 22.793 C 94.103 22.494 93.88 22.241 93.601 22.063 C 93.309 21.883 92.971 21.792 92.627 21.799 C 92.256 21.799 91.928 21.888 91.649 22.063 C 91.366 22.241 91.137 22.494 90.989 22.794 C 90.83 23.105 90.751 23.466 90.751 23.879 L 90.751 23.949 L 94.474 23.949 Z M 100.032 19.679 L 103.267 19.679 L 103.267 21.394 L 103.419 21.394 C 103.486 21.143 103.622 20.875 103.825 20.588 C 104.028 20.301 104.309 20.052 104.667 19.843 C 105.024 19.632 105.464 19.528 105.985 19.528 C 106.215 19.528 106.407 19.534 106.564 19.548 C 106.719 19.562 106.851 19.585 106.958 19.619 L 106.958 22.368 C 106.797 22.318 106.63 22.286 106.461 22.271 C 106.233 22.247 106.003 22.235 105.772 22.235 C 105.218 22.235 104.761 22.336 104.403 22.535 C 104.044 22.734 103.781 23.015 103.611 23.377 C 103.442 23.739 103.358 24.159 103.358 24.639 L 103.358 30.513 L 100.031 30.513 L 100.031 19.679 Z" fill="rgb(60,60,67)"></path></svg>