<svg xmlns="http://www.w3.org/2000/svg" xmlns:xlink="http://www.w3.org/1999/xlink" viewBox="0 0 115 46"><g transform="translate(33.062 12.936)" id="ss1592359704_1"><path d="M 0.001 0.002 L 77.626 0.002 L 77.626 22.891 L 0.001 22.891 Z" fill="transparent"></path><path d="M 3.995 0.08 C 2.406 0.772 0.659 2.724 0.108 5.177 C -0.591 8.283 2.316 9.595 2.555 9.166 C 2.836 8.66 2.035 8.488 1.869 6.877 C 1.656 4.795 2.587 2.47 3.759 1.449 C 3.976 1.259 3.966 1.522 3.966 2.011 C 3.966 2.884 3.92 10.72 3.92 12.355 C 3.92 14.568 3.832 15.266 3.674 15.957 C 3.514 16.656 3.257 17.129 3.452 17.311 C 3.67 17.515 4.599 17.031 5.137 16.25 C 5.783 15.313 6.009 14.189 6.05 12.966 C 6.098 11.494 6.096 9.157 6.098 7.825 C 6.1 6.603 6.119 3.023 6.078 0.872 C 6.068 0.344 4.66 -0.21 3.995 0.08 Z M 77.276 11.705 C 77.046 11.705 76.941 11.951 76.854 12.367 C 76.552 13.813 76.235 14.139 75.826 14.139 C 75.369 14.139 74.958 13.423 74.853 11.991 C 74.77 10.865 74.783 8.79 74.889 6.729 C 74.911 6.304 74.798 5.885 73.705 5.472 C 73.234 5.293 72.549 5.033 72.209 5.887 C 71.246 8.302 70.87 10.219 70.781 10.997 C 70.776 11.038 70.729 11.046 70.721 10.951 C 70.664 10.329 70.538 9.194 70.522 6.813 C 70.519 6.349 70.424 5.953 69.931 5.629 C 69.611 5.419 68.639 5.048 68.289 5.49 C 67.986 5.852 67.634 6.824 67.269 7.978 C 66.973 8.915 66.766 9.549 66.766 9.549 C 66.766 9.549 66.77 7.019 66.773 6.061 C 66.775 5.699 66.536 5.578 66.464 5.557 C 66.14 5.458 65.501 5.295 65.23 5.295 C 64.897 5.295 64.814 5.489 64.814 5.773 C 64.814 5.81 64.761 9.103 64.761 11.405 L 64.762 11.731 C 64.576 12.789 63.977 14.225 63.324 14.225 C 62.672 14.225 62.363 13.625 62.363 10.88 C 62.363 9.279 62.41 8.582 62.432 7.424 C 62.446 6.757 62.471 6.245 62.47 6.129 C 62.464 5.772 61.872 5.592 61.596 5.526 C 61.365 5.465 61.127 5.437 60.889 5.443 C 60.623 5.46 60.435 5.641 60.435 5.891 L 60.436 6.28 C 60.093 5.718 59.541 5.329 59.174 5.216 C 58.186 4.911 57.154 5.181 56.376 6.313 C 55.758 7.213 55.385 8.231 55.238 9.694 C 55.131 10.764 55.166 11.848 55.356 12.767 C 55.126 13.801 54.698 14.225 54.23 14.225 C 53.55 14.225 53.057 13.072 53.115 11.077 C 53.153 9.766 53.406 8.845 53.682 7.512 C 53.799 6.945 53.704 6.648 53.464 6.362 C 53.244 6.101 52.776 5.967 52.101 6.132 C 51.621 6.249 50.935 6.375 50.307 6.472 C 50.307 6.472 50.344 6.315 50.375 6.038 C 50.539 4.584 49.02 4.703 48.535 5.166 C 48.246 5.443 48.049 5.77 47.974 6.358 C 47.855 7.29 48.587 7.73 48.587 7.73 C 48.348 8.872 47.759 10.364 47.152 11.442 C 46.827 12.02 46.577 12.448 46.256 12.905 L 46.254 12.396 C 46.246 9.995 46.277 8.105 46.29 7.424 C 46.304 6.757 46.33 6.259 46.327 6.143 C 46.324 5.881 46.178 5.784 45.874 5.659 C 45.58 5.541 45.27 5.469 44.955 5.445 C 44.538 5.412 44.287 5.641 44.293 5.914 C 44.295 5.965 44.295 6.28 44.295 6.28 C 43.952 5.719 43.4 5.33 43.033 5.217 C 42.045 4.912 41.013 5.182 40.235 6.314 C 39.617 7.213 39.212 8.475 39.097 9.684 C 38.99 10.81 39.01 11.767 39.155 12.573 C 38.999 13.381 38.546 14.226 38.035 14.226 C 37.382 14.226 37.009 13.625 37.009 10.881 C 37.009 9.28 37.055 8.582 37.078 7.424 C 37.092 6.758 37.118 6.245 37.116 6.129 C 37.112 5.773 36.518 5.593 36.242 5.526 C 36.004 5.463 35.758 5.436 35.513 5.446 C 35.26 5.465 35.082 5.7 35.082 5.876 L 35.082 6.281 C 34.74 5.719 34.188 5.329 33.821 5.217 C 32.832 4.912 31.806 5.187 31.023 6.314 C 30.512 7.05 30.098 7.864 29.885 9.667 C 29.826 10.153 29.797 10.643 29.799 11.133 C 29.596 12.429 28.695 13.922 27.959 13.922 C 27.528 13.922 27.118 13.054 27.118 11.202 C 27.118 8.736 27.265 5.224 27.29 4.886 C 27.29 4.886 28.22 4.869 28.4 4.867 C 28.865 4.862 29.284 4.873 29.902 4.84 C 30.213 4.823 30.512 3.667 30.191 3.524 C 30.047 3.459 29.021 3.402 28.615 3.394 C 28.184 3.373 27.753 3.346 27.322 3.312 C 27.322 3.312 27.407 0.981 27.428 0.736 C 27.444 0.53 27.188 0.425 27.042 0.36 C 26.686 0.204 26.368 0.129 25.99 0.048 C 25.468 -0.065 25.231 0.045 25.185 0.503 C 25.116 1.198 25.08 3.233 25.08 3.233 C 24.696 3.233 23.388 3.155 23.005 3.155 C 22.649 3.155 22.266 4.747 22.757 4.765 C 23.324 4.788 24.31 4.809 24.965 4.829 C 24.965 4.829 24.935 8.398 24.935 9.501 L 24.935 9.84 C 24.577 11.79 23.308 12.843 23.308 12.843 C 23.58 11.553 23.025 10.584 22.022 9.764 C 21.391 9.255 20.753 8.755 20.108 8.263 C 20.108 8.263 20.581 7.779 21.001 6.806 C 21.297 6.116 21.31 5.327 20.581 5.154 C 19.378 4.866 18.386 5.785 18.09 6.765 C 17.86 7.525 17.982 8.088 18.432 8.674 C 18.465 8.718 18.5 8.761 18.537 8.805 C 18.229 9.426 17.908 10.041 17.575 10.65 C 16.699 12.227 16.036 13.475 15.535 13.475 C 15.135 13.475 15.139 12.208 15.139 11.022 C 15.139 10 15.213 8.463 15.271 6.87 C 15.29 6.344 15.036 6.044 14.612 5.773 C 14.354 5.607 13.803 5.283 13.485 5.283 C 13.008 5.283 11.631 5.35 10.329 9.262 C 10.172 9.727 10.01 10.191 9.845 10.653 L 9.872 5.949 C 9.872 5.839 9.815 5.732 9.685 5.66 C 9.467 5.536 8.881 5.282 8.361 5.282 C 8.112 5.282 7.989 5.402 7.989 5.641 L 7.943 13.001 C 7.943 13.56 7.958 14.212 8.011 14.497 C 8.064 14.782 8.149 15.015 8.256 15.153 C 8.358 15.3 8.512 15.403 8.687 15.44 C 8.876 15.481 9.907 15.619 9.961 15.208 C 10.026 14.717 10.028 14.186 10.57 12.204 C 11.413 9.12 12.513 7.614 13.031 7.08 C 13.121 6.986 13.224 6.981 13.219 7.133 C 13.197 7.81 13.119 9.5 13.066 10.936 C 12.927 14.778 13.6 15.49 14.561 15.49 C 15.296 15.49 16.332 14.731 17.443 12.809 C 18.062 11.738 18.678 10.665 19.291 9.59 C 19.628 9.914 20.005 10.262 20.383 10.635 C 21.261 11.501 21.549 12.323 21.358 13.104 C 21.211 13.7 20.661 14.315 19.68 13.718 C 19.395 13.543 19.273 13.409 18.986 13.212 C 18.831 13.106 18.596 13.075 18.455 13.185 C 18.087 13.473 17.878 13.838 17.758 14.292 C 17.642 14.733 18.066 14.965 18.506 15.169 C 18.885 15.344 19.7 15.503 20.219 15.521 C 22.243 15.591 23.864 14.505 24.992 11.704 C 25.194 14.124 26.053 15.493 27.547 15.493 C 28.546 15.493 29.547 14.15 29.985 12.83 C 30.111 13.368 30.297 13.837 30.537 14.232 C 31.688 16.127 33.921 15.72 35.043 14.11 C 35.389 13.613 35.442 13.434 35.442 13.434 C 35.606 14.953 36.783 15.485 37.458 15.485 C 38.212 15.485 38.992 15.114 39.539 13.835 C 39.602 13.971 39.672 14.103 39.749 14.232 C 40.9 16.127 43.133 15.72 44.254 14.11 C 44.302 14.042 44.348 13.973 44.393 13.904 L 44.427 14.903 L 43.394 15.887 C 41.663 17.536 40.348 18.787 40.252 20.243 C 40.128 22.1 41.576 22.79 42.674 22.88 C 43.837 22.977 44.835 22.308 45.447 21.372 C 45.986 20.549 46.339 18.778 46.313 17.026 C 46.303 16.326 46.286 15.435 46.273 14.48 C 46.988 13.619 47.631 12.7 48.195 11.733 C 48.882 10.551 49.618 8.964 49.994 7.728 C 49.994 7.728 50.635 7.733 51.317 7.687 C 51.535 7.673 51.598 7.719 51.557 7.885 C 51.509 8.086 50.695 11.348 51.438 13.521 C 51.946 15.009 53.092 15.487 53.771 15.487 C 54.567 15.487 55.327 14.862 55.735 13.936 C 55.784 14.039 55.835 14.138 55.892 14.231 C 57.042 16.126 59.267 15.716 60.397 14.109 C 60.652 13.746 60.796 13.433 60.796 13.433 C 61.038 15.006 62.216 15.492 62.89 15.492 C 63.564 15.492 64.258 15.193 64.799 13.863 C 64.821 14.448 64.857 14.927 64.913 15.078 C 64.947 15.17 65.147 15.286 65.292 15.342 C 65.934 15.59 66.589 15.472 66.832 15.422 C 67 15.387 67.131 15.247 67.149 14.885 C 67.196 13.936 67.167 12.341 67.444 11.156 C 67.909 9.166 68.342 8.394 68.548 8.012 C 68.663 7.799 68.793 7.764 68.797 7.989 C 68.807 8.447 68.829 9.793 69.009 11.602 C 69.141 12.932 69.318 13.718 69.453 13.966 C 69.841 14.678 70.32 14.711 70.709 14.711 C 70.957 14.711 71.475 14.642 71.429 14.188 C 71.406 13.967 71.446 12.604 71.904 10.644 C 72.203 9.364 72.703 8.208 72.882 7.785 C 72.949 7.628 72.98 7.752 72.979 7.776 C 72.941 8.657 72.855 11.54 73.201 13.117 C 73.67 15.253 75.024 15.493 75.496 15.493 C 76.504 15.493 77.328 14.696 77.605 12.599 C 77.673 12.093 77.574 11.704 77.277 11.704 L 77.276 11.704 Z M 35.061 10.408 C 35.003 11.518 34.794 12.446 34.46 13.12 C 33.856 14.339 32.66 14.725 32.133 12.963 C 31.752 11.694 31.881 9.961 32.04 9.025 C 32.274 7.636 32.862 6.651 33.78 6.744 C 34.723 6.84 35.181 8.099 35.061 10.409 Z M 44.273 10.424 C 44.219 11.473 43.957 12.525 43.672 13.12 C 43.083 14.347 41.853 14.732 41.345 12.963 C 40.995 11.756 41.078 10.192 41.251 9.208 C 41.475 7.93 42.017 6.744 42.991 6.744 C 43.939 6.744 44.406 7.825 44.273 10.424 Z M 44.513 17.573 C 44.5 19.484 44.211 21.161 43.59 21.647 C 42.71 22.337 41.527 21.819 41.771 20.425 C 41.989 19.191 43.013 17.931 44.516 16.39 C 44.516 16.39 44.519 16.742 44.513 17.574 Z M 60.415 10.436 C 60.364 11.586 60.119 12.486 59.814 13.12 C 59.226 14.347 58.004 14.729 57.486 12.963 C 57.203 12.002 57.191 10.395 57.394 9.053 C 57.6 7.685 58.178 6.651 59.134 6.745 C 60.078 6.837 60.518 8.1 60.415 10.436 Z" fill="rgb(60,60,67)"></path></g><path d="M 12.048 21.664 C 12.027 20.268 12.759 18.969 13.965 18.265 C 15.17 17.561 16.661 17.561 17.867 18.265 C 19.072 18.969 19.804 20.268 19.783 21.664 C 19.75 23.777 18.028 25.472 15.916 25.472 C 13.803 25.472 12.081 23.777 12.048 21.664 Z M 9.957 21.664 C 9.957 24.954 12.624 27.621 15.914 27.621 C 19.204 27.621 21.871 24.954 21.871 21.664 C 21.871 18.374 19.204 15.707 15.914 15.707 C 12.624 15.707 9.957 18.374 9.957 21.664 Z M 20.716 15.471 C 20.716 16.24 21.339 16.864 22.109 16.864 C 22.878 16.864 23.501 16.24 23.501 15.471 C 23.501 14.701 22.878 14.078 22.109 14.078 C 21.339 14.078 20.716 14.701 20.716 15.471 Z M 11.227 31.108 C 10.095 31.056 9.481 30.868 9.072 30.709 C 8.568 30.522 8.113 30.226 7.738 29.841 C 7.352 29.467 7.056 29.011 6.871 28.507 C 6.71 28.1 6.523 27.484 6.471 26.353 C 6.416 25.13 6.404 24.763 6.404 21.665 C 6.404 18.567 6.417 18.2 6.471 16.977 C 6.523 15.845 6.712 15.232 6.871 14.822 C 7.082 14.28 7.332 13.895 7.738 13.488 C 8.143 13.082 8.529 12.829 9.072 12.621 C 9.481 12.46 10.096 12.273 11.227 12.221 C 12.45 12.166 12.817 12.154 15.914 12.154 C 19.012 12.154 19.379 12.167 20.602 12.221 C 21.734 12.273 22.347 12.462 22.757 12.621 C 23.261 12.807 23.717 13.103 24.091 13.488 C 24.498 13.893 24.749 14.28 24.959 14.822 C 25.119 15.231 25.306 15.846 25.358 16.977 C 25.413 18.2 25.425 18.567 25.425 21.665 C 25.425 24.763 25.414 25.13 25.358 26.353 C 25.306 27.485 25.117 28.1 24.959 28.508 C 24.773 29.012 24.476 29.468 24.091 29.842 C 23.717 30.227 23.261 30.523 22.757 30.709 C 22.349 30.869 21.733 31.056 20.602 31.108 C 19.379 31.163 19.013 31.175 15.914 31.175 C 12.817 31.175 12.449 31.163 11.227 31.108 Z M 11.132 10.133 C 9.897 10.189 9.053 10.386 8.316 10.672 C 7.542 10.963 6.841 11.42 6.261 12.01 C 5.67 12.589 5.214 13.291 4.923 14.065 C 4.636 14.803 4.44 15.646 4.384 16.88 C 4.327 18.118 4.313 18.514 4.313 21.664 C 4.313 24.815 4.327 25.21 4.384 26.448 C 4.44 27.683 4.636 28.526 4.923 29.263 C 5.218 30.027 5.616 30.674 6.261 31.319 C 6.84 31.909 7.542 32.365 8.316 32.656 C 9.054 32.944 9.897 33.139 11.131 33.195 C 12.37 33.251 12.765 33.266 15.915 33.266 C 19.066 33.266 19.461 33.252 20.699 33.195 C 21.934 33.14 22.777 32.943 23.514 32.656 C 24.288 32.365 24.989 31.908 25.57 31.319 C 26.16 30.739 26.616 30.038 26.907 29.263 C 27.195 28.526 27.391 27.683 27.446 26.448 C 27.502 25.209 27.515 24.814 27.515 21.664 C 27.515 18.514 27.502 18.118 27.446 16.88 C 27.391 15.646 27.194 14.802 26.908 14.065 C 26.616 13.291 26.159 12.59 25.57 12.01 C 24.99 11.42 24.289 10.963 23.515 10.672 C 22.777 10.384 21.933 10.188 20.7 10.133 C 19.463 10.078 19.066 10.063 15.916 10.063 C 12.766 10.063 12.37 10.076 11.132 10.133 Z" fill="rgb(60,60,67)"></path></svg>