<svg xmlns="http://www.w3.org/2000/svg" xmlns:xlink="http://www.w3.org/1999/xlink" viewBox="0 0 115 46"><path d="M 30.846 19.365 C 31.916 19.365 32.942 18.485 33.12 17.399 C 33.332 16.343 32.606 15.463 31.538 15.463 C 30.469 15.463 29.442 16.343 29.261 17.399 C 29.052 18.485 29.747 19.365 30.846 19.365 Z M 103.432 22.506 L 105.825 22.506 C 106.152 22.506 106.345 22.374 106.418 22.072 C 106.533 21.603 106.651 21.136 106.772 20.669 C 106.842 20.396 106.682 20.19 106.377 20.19 L 104.016 20.19 C 104.185 19.521 104.848 17.351 104.848 15.936 C 104.848 13.11 102.419 10.705 98.973 10.705 C 95.081 10.705 92.548 13.287 92.548 16.918 C 92.548 17.978 92.949 19.212 93.444 19.979 C 93.231 19.966 93.017 19.96 92.803 19.96 C 89.846 19.96 87.983 21.545 87.983 23.852 C 87.983 26.018 89.71 26.858 91.337 27.419 C 92.78 27.916 94.11 28.147 94.11 29.262 C 94.11 30.014 93.379 30.455 91.947 30.455 C 90.247 30.455 89.314 29.664 89.076 29.365 C 89.237 29.239 89.476 28.941 89.476 28.446 C 89.476 27.753 88.983 27.186 88.068 27.186 C 87.292 27.186 86.638 27.811 86.474 28.632 C 85.229 29.639 83.87 30.29 81.944 30.29 C 80.018 30.29 79.063 29.315 79.063 27.241 C 79.507 27.375 80.666 27.536 81.431 27.536 C 84.643 27.536 86.831 26.093 86.831 23.205 C 86.831 21.653 85.451 20.022 82.723 20.022 L 82.716 20.022 C 79.126 20.022 77.116 22.269 76.239 24.741 C 75.992 24.682 75.746 24.625 75.499 24.57 C 75.72 23.965 75.834 23.326 75.837 22.683 C 75.837 21.462 75.071 20.022 73.025 20.022 C 71.599 20.022 70.247 20.945 69.308 22.328 L 69.707 20.785 C 69.768 20.549 69.669 20.286 69.296 20.286 L 67.195 20.286 C 66.895 20.286 66.684 20.391 66.599 20.728 L 65.118 26.476 C 64.674 28.175 62.385 30.29 59.507 30.29 C 57.609 30.29 56.626 29.25 56.626 27.176 C 57.123 27.371 58.229 27.535 58.993 27.535 C 62.336 27.535 64.394 26.093 64.394 23.205 C 64.394 21.652 63.014 20.022 60.285 20.022 L 60.278 20.022 C 56.237 20.022 53.761 23.124 53.342 26.641 C 53.167 28.104 51.917 30.112 50.563 30.112 C 49.904 30.112 49.536 29.702 49.536 29.008 C 49.536 28.408 49.964 26.939 50.433 25.099 L 51.093 22.505 L 53.29 22.505 C 53.618 22.505 53.809 22.374 53.883 22.072 C 53.988 21.637 54.182 20.877 54.236 20.669 C 54.307 20.396 54.148 20.19 53.841 20.19 L 51.68 20.19 C 51.68 20.19 52.675 16.268 52.699 16.167 C 52.794 15.768 52.457 15.538 52.103 15.611 C 52.103 15.611 50.433 15.934 50.123 15.998 C 49.812 16.06 49.571 16.23 49.457 16.673 L 48.572 20.19 L 46.837 20.19 C 46.511 20.19 46.318 20.322 46.245 20.624 C 46.13 21.093 46.012 21.559 45.892 22.027 C 45.82 22.299 45.981 22.505 46.286 22.505 L 47.988 22.505 C 47.975 22.553 47.373 24.818 46.886 26.847 C 46.656 27.822 45.889 30.103 44.63 30.103 C 43.878 30.103 43.561 29.729 43.561 28.926 C 43.561 27.661 44.821 24.492 44.821 23.056 C 44.821 21.135 43.779 20.023 41.643 20.023 C 40.297 20.023 38.901 20.882 38.31 21.636 C 38.31 21.636 38.489 21.018 38.55 20.781 C 38.616 20.531 38.48 20.284 38.147 20.284 L 36.058 20.284 C 35.614 20.284 35.492 20.52 35.426 20.777 C 35.401 20.881 34.648 23.8 33.926 26.603 C 33.432 28.523 32.231 30.126 30.948 30.126 C 30.288 30.126 29.994 29.717 29.994 29.021 C 29.994 28.421 30.387 26.939 30.855 25.099 C 31.425 22.86 31.929 21.016 31.982 20.801 C 32.052 20.525 31.927 20.284 31.567 20.284 L 29.467 20.284 C 29.086 20.284 28.95 20.482 28.87 20.756 C 28.87 20.756 28.279 22.968 27.652 25.43 C 27.198 27.216 26.696 29.036 26.696 29.892 C 26.696 31.417 27.388 32.567 29.296 32.567 C 30.767 32.567 31.931 31.83 32.819 30.891 L 32.597 31.754 C 32.521 32.044 32.613 32.301 32.96 32.301 L 35.11 32.301 C 35.483 32.301 35.628 32.152 35.706 31.83 C 35.781 31.522 37.386 25.282 37.386 25.282 C 37.811 23.605 38.86 22.496 40.336 22.496 C 41.037 22.496 41.643 22.954 41.573 23.845 C 41.495 24.823 40.3 28.343 40.3 29.887 C 40.3 31.056 40.739 32.568 42.965 32.568 C 44.483 32.568 45.601 31.849 46.413 30.921 C 46.71 31.906 47.499 32.568 48.944 32.568 C 51.347 32.568 52.795 31.16 53.646 29.745 C 54.352 31.389 56.006 32.567 58.43 32.567 C 60.596 32.58 62.672 31.701 64.171 30.138 L 63.748 31.776 C 63.671 32.071 63.802 32.304 64.153 32.304 L 66.28 32.304 C 66.57 32.304 66.778 32.157 66.854 31.855 C 66.89 31.706 67.199 30.532 67.633 28.865 C 68.463 25.673 69.798 22.361 71.803 22.361 C 72.51 22.361 72.801 22.752 72.801 23.366 C 72.801 23.657 72.715 23.907 72.641 24.042 C 71.669 23.851 70.887 24.326 70.887 25.351 C 70.887 26.019 71.598 26.627 72.559 26.627 C 73.293 26.627 73.9 26.448 74.383 26.127 C 74.859 26.224 75.334 26.326 75.809 26.433 C 75.736 26.895 75.698 27.363 75.697 27.832 C 75.697 30.394 77.548 32.567 80.867 32.567 C 83.467 32.567 85.252 31.627 86.792 30.422 C 87.532 31.619 89.402 32.586 91.855 32.586 C 95.216 32.586 97.123 30.859 97.123 28.575 C 97.123 26.509 95.407 25.749 93.636 25.116 C 92.197 24.601 90.996 24.322 90.996 23.317 C 90.996 22.493 91.653 22.117 92.777 22.117 C 93.508 22.117 94.055 22.271 94.348 22.352 C 94.638 23.07 95.238 23.866 96.264 23.866 C 97.131 23.866 97.521 23.187 97.521 22.563 C 97.521 20.786 94.524 20.6 94.524 16.788 C 94.524 14.418 95.881 12.462 98.693 12.462 C 100.645 12.462 101.921 13.686 101.921 15.662 C 101.921 17.29 100.921 20.188 100.921 20.188 L 99.223 20.188 C 98.896 20.188 98.703 20.321 98.63 20.623 C 98.515 21.092 98.397 21.558 98.276 22.026 C 98.204 22.298 98.365 22.504 98.671 22.504 L 100.33 22.504 C 100.33 22.504 98.615 28.754 98.615 29.89 C 98.615 31.416 99.485 32.566 101.392 32.566 C 104.09 32.566 105.775 30.834 106.508 28.316 C 106.565 28.121 106.453 27.962 106.254 27.962 L 105.224 27.962 C 105.019 27.962 104.9 28.077 104.848 28.276 C 104.616 29.17 104.039 30.111 102.905 30.111 C 102.245 30.111 101.878 29.701 101.878 29.007 C 101.878 28.406 102.28 27.001 102.775 25.099 C 103.011 24.193 103.43 22.505 103.43 22.505 L 103.432 22.505 Z M 82.164 22.398 C 83.118 22.398 83.572 23.026 83.572 23.773 C 83.572 25.037 82.578 25.808 81.027 25.808 C 80.421 25.796 79.819 25.701 79.238 25.527 C 79.43 24.364 80.282 22.399 82.163 22.399 L 82.164 22.399 Z M 59.726 22.398 C 60.771 22.398 61.134 23.026 61.134 23.773 C 61.134 25.037 60.141 25.808 58.59 25.808 C 57.983 25.796 57.381 25.702 56.8 25.527 C 56.992 24.364 57.747 22.399 59.726 22.399 Z M 18.45 10.678 C 11.644 10.678 8.212 15.5 8.212 19.521 C 8.212 21.956 9.145 24.121 11.145 24.928 C 11.473 25.062 11.767 24.933 11.862 24.574 C 11.929 24.326 12.085 23.699 12.155 23.438 C 12.251 23.084 12.214 22.96 11.949 22.649 C 11.372 21.978 11.003 21.107 11.003 19.874 C 11.003 16.296 13.712 13.093 18.056 13.093 C 21.903 13.093 24.018 15.416 24.018 18.519 C 24.018 22.6 22.189 26.044 19.475 26.044 C 17.976 26.044 16.855 24.821 17.214 23.317 C 17.645 21.524 18.479 19.59 18.479 18.294 C 18.479 17.137 17.85 16.169 16.547 16.169 C 15.015 16.169 13.784 17.736 13.784 19.833 C 13.784 21.17 14.242 22.074 14.242 22.074 L 12.399 29.787 C 11.851 32.076 12.316 34.883 12.356 35.166 C 12.38 35.334 12.598 35.374 12.696 35.247 C 12.838 35.065 14.662 32.839 15.283 30.615 C 15.458 29.985 16.29 26.723 16.29 26.723 C 16.787 27.662 18.243 28.489 19.79 28.489 C 24.395 28.489 27.519 24.34 27.519 18.787 C 27.519 14.588 23.92 10.678 18.45 10.678 Z" fill="rgb(60,60,67)"></path></svg>