<svg xmlns="http://www.w3.org/2000/svg" xmlns:xlink="http://www.w3.org/1999/xlink" viewBox="0 0 115 46"><path d="M 12.862 34.46 C 15.016 34.46 16.628 32.869 16.628 32.869 C 16.77 32.75 16.931 32.636 16.931 32.636 C 18.221 31.786 20.311 32.399 20.311 32.399 C 21.071 32.58 21.093 32.003 21.093 32.003 L 21.152 31.352 C 21.207 30.712 22.188 30.719 22.188 30.719 C 23.477 30.667 24.021 30.138 24.245 29.764 C 24.485 29.405 24.031 29.304 24.031 29.304 C 20.917 28.432 19.406 25.467 19.406 25.467 C 18.703 24.228 19.667 23.729 19.667 23.729 C 19.928 23.543 21.204 23.121 21.204 23.121 C 22.258 22.698 21.908 21.962 21.908 21.962 C 21.517 21.171 20.605 21.699 20.605 21.699 C 20.174 21.929 19.85 21.91 19.85 21.91 C 19.13 21.923 19.043 21.768 19.043 21.768 L 19.067 18.338 C 19.067 15.201 16.309 12.657 12.906 12.657 L 12.847 12.657 C 9.444 12.657 6.686 15.201 6.686 18.338 L 6.71 21.768 C 6.71 21.768 6.624 21.923 5.904 21.909 C 5.904 21.909 5.579 21.928 5.148 21.699 C 5.148 21.699 4.237 21.171 3.846 21.962 C 3.846 21.962 3.496 22.698 4.548 23.121 C 4.548 23.121 5.825 23.544 6.085 23.729 C 6.085 23.729 7.05 24.229 6.346 25.467 C 6.346 25.467 4.836 28.432 1.721 29.304 C 1.721 29.304 1.267 29.405 1.508 29.764 C 1.731 30.138 2.275 30.668 3.565 30.719 C 3.565 30.719 4.545 30.712 4.601 31.352 L 4.66 32.004 C 4.66 32.004 4.682 32.58 5.442 32.4 C 5.442 32.4 7.532 31.786 8.822 32.636 C 8.822 32.636 8.983 32.749 9.125 32.869 C 9.125 32.869 10.737 34.46 12.891 34.46 L 12.863 34.46 Z M 31.002 25.556 C 31.846 25.979 33.747 26.625 35.085 26.625 C 36.526 26.625 37.287 26.039 37.287 25.15 C 37.287 24.262 36.629 23.818 34.962 23.232 C 32.657 22.444 31.156 21.191 31.156 19.213 C 31.156 16.89 33.131 15.113 36.403 15.113 C 37.967 15.113 39.118 15.436 39.942 15.799 L 39.967 18.522 C 39.412 18.259 37.699 17.637 36.342 17.637 C 34.984 17.637 34.325 18.244 34.325 18.95 C 34.325 19.819 35.107 20.201 36.897 20.868 C 39.346 21.758 40.498 23.009 40.498 24.928 C 40.498 27.21 38.707 29.17 34.901 29.17 C 33.317 29.17 31.753 28.744 30.971 28.32 L 31.003 25.556 Z M 67.414 19.228 L 67.414 20.76 C 67.994 19.681 68.833 19.055 70.64 19.055 C 72.795 19.055 74.49 20.727 74.49 23.878 C 74.49 27.472 72.346 29.168 70.151 29.168 C 68.962 29.168 68.036 28.684 67.593 28.038 L 67.371 27.748 L 67.371 33.314 L 64.494 33.314 L 64.494 19.25 Z M 67.359 24.777 C 67.359 25.029 67.38 25.26 67.423 25.447 C 67.631 26.307 68.363 26.957 69.283 26.957 C 70.663 26.957 71.478 25.804 71.478 24.064 C 71.478 22.429 70.747 21.191 69.326 21.191 C 68.426 21.191 67.632 21.863 67.423 22.807 C 67.381 22.974 67.36 23.184 67.36 23.373 L 67.36 24.777 Z M 83.841 28.72 C 83.297 28.963 82.27 29.184 81.103 29.184 C 77.921 29.184 75.887 27.3 75.887 24.19 C 75.887 21.302 77.861 19.061 81.526 19.061 C 82.331 19.061 83.217 19.202 83.861 19.444 L 83.845 21.796 C 83.265 21.451 82.472 21.302 81.667 21.302 C 79.845 21.302 78.857 22.454 78.877 24.069 C 78.877 25.886 79.888 26.836 81.726 26.836 C 82.451 26.836 83.361 26.486 83.824 26.283 L 83.841 28.721 Z M 91.574 19.056 C 94.014 19.056 95.044 20.195 95.018 23.171 L 95.018 28.947 L 92.026 28.947 L 92.026 23.514 C 92.026 22.222 91.514 21.333 90.366 21.333 C 89.56 21.333 88.982 21.857 88.761 22.403 C 88.681 22.605 88.659 22.868 88.659 23.09 L 88.659 28.946 L 85.791 28.946 L 85.791 14.61 L 88.688 14.61 L 88.688 20.682 C 89.621 18.959 91.575 19.058 91.575 19.058 Z M 111.368 16.386 L 111.368 19.272 L 113.563 19.272 L 113.563 21.496 L 111.368 21.496 L 111.368 25.124 C 111.368 26.414 111.581 26.861 112.575 26.861 C 112.998 26.861 113.179 26.841 113.481 26.781 L 113.501 28.887 C 113.098 29.048 112.373 29.17 111.508 29.17 C 110.521 29.17 109.786 28.806 109.303 28.301 C 108.739 27.715 108.458 26.766 108.458 25.373 L 108.458 21.496 L 106.968 21.496 L 106.968 19.272 L 108.458 19.272 L 108.458 17.214 L 111.368 16.385 Z M 48.212 18.849 C 46.771 18.849 45.808 19.558 45.306 20.155 L 45.306 19.033 L 42.272 19.033 L 42.272 21.557 C 42.268 21.779 42.266 22.001 42.266 22.223 L 42.266 28.948 L 42.272 28.948 L 42.272 28.957 L 42.278 28.948 L 45.393 28.948 L 45.393 23.253 C 45.393 22.971 45.434 22.687 45.517 22.485 C 45.722 21.92 46.237 21.335 47.101 21.335 C 48.233 21.335 48.685 22.202 48.685 23.475 L 48.685 28.948 L 51.813 28.948 L 51.813 23.091 C 51.813 20.183 50.585 18.85 48.212 18.85 Z M 62.06 28.957 L 62.06 23.11 C 62.06 20.788 61.029 18.849 57.747 18.849 C 56.137 18.849 54.889 19.24 54.156 19.598 L 54.156 21.948 C 54.822 21.548 56.221 21.055 57.203 21.055 C 58.713 21.055 59.035 22.086 59.035 22.612 L 59.035 22.753 C 55.552 22.732 53.216 23.575 53.216 26.14 C 53.216 27.715 54.404 29.17 56.398 29.17 C 57.566 29.17 58.573 28.744 59.217 27.957 L 59.277 27.957 L 59.254 28.947 L 61.534 28.947 L 62.06 28.957 Z M 59.001 25.467 C 59.001 25.648 58.979 25.827 58.939 25.987 C 58.732 26.609 58.089 27.111 57.301 27.111 C 56.597 27.111 56.059 26.73 56.059 25.948 C 56.059 24.765 57.344 24.384 59.001 24.405 Z M 105.484 28.957 L 105.484 23.11 C 105.484 20.788 104.452 18.849 101.171 18.849 C 99.561 18.849 98.312 19.24 97.579 19.598 L 97.579 21.948 C 98.245 21.548 99.644 21.055 100.626 21.055 C 102.137 21.055 102.459 22.086 102.459 22.612 L 102.459 22.753 C 98.975 22.732 96.64 23.575 96.64 26.14 C 96.64 27.715 97.827 29.17 99.821 29.17 C 100.988 29.17 101.996 28.744 102.64 27.957 L 102.7 27.957 L 102.678 28.947 L 104.957 28.947 L 105.483 28.957 Z M 102.424 25.467 C 102.424 25.648 102.402 25.827 102.362 25.987 C 102.155 26.609 101.512 27.111 100.724 27.111 C 100.021 27.111 99.482 26.73 99.482 25.948 C 99.482 24.765 100.767 24.384 102.424 24.405 Z" fill="rgb(60,60,67)"></path></svg>