<svg xmlns="http://www.w3.org/2000/svg" xmlns:xlink="http://www.w3.org/1999/xlink" viewBox="0 0 115 46"><path d="M 29.768 9.773 C 22.849 9.773 17.242 15.381 17.242 22.299 C 17.242 29.217 22.85 34.827 29.768 34.827 C 36.686 34.827 42.294 29.218 42.294 22.299 C 42.294 15.381 36.687 9.774 29.768 9.774 Z M 35.513 27.84 C 35.405 28.017 35.231 28.144 35.03 28.193 C 34.829 28.241 34.616 28.208 34.439 28.1 C 31.497 26.302 27.795 25.895 23.434 26.892 C 23.014 26.987 22.596 26.724 22.5 26.304 C 22.404 25.884 22.667 25.466 23.087 25.37 C 27.859 24.279 31.952 24.748 35.253 26.766 C 35.621 26.992 35.738 27.472 35.512 27.84 Z M 37.046 24.43 C 36.762 24.89 36.162 25.033 35.702 24.752 C 32.335 22.682 27.203 22.082 23.22 23.291 C 22.704 23.447 22.158 23.156 22.001 22.64 C 21.845 22.124 22.136 21.579 22.652 21.422 C 27.202 20.042 32.858 20.711 36.724 23.087 C 37.184 23.37 37.328 23.971 37.046 24.43 Z M 37.177 20.878 C 33.139 18.48 26.479 18.259 22.625 19.429 C 22.013 19.595 21.38 19.244 21.196 18.638 C 21.012 18.032 21.343 17.389 21.944 17.187 C 26.369 15.843 33.725 16.103 38.373 18.863 C 38.907 19.203 39.075 19.905 38.752 20.45 C 38.429 20.994 37.731 21.184 37.177 20.878 Z M 51.322 21.338 C 49.159 20.821 48.774 20.459 48.774 19.699 C 48.774 18.981 49.451 18.497 50.457 18.497 C 51.463 18.497 52.399 18.864 53.413 19.619 C 53.444 19.642 53.482 19.652 53.52 19.646 C 53.558 19.64 53.591 19.619 53.613 19.588 L 54.669 18.099 C 54.713 18.038 54.701 17.953 54.642 17.906 C 53.436 16.938 52.078 16.468 50.489 16.468 C 48.154 16.468 46.523 17.869 46.523 19.875 C 46.523 22.025 47.93 22.786 50.361 23.374 C 52.431 23.85 52.78 24.249 52.78 24.963 C 52.78 25.754 52.074 26.247 50.937 26.247 C 49.674 26.247 48.644 25.822 47.492 24.823 C 47.463 24.799 47.426 24.788 47.388 24.79 C 47.351 24.793 47.316 24.811 47.292 24.84 L 46.108 26.249 C 46.058 26.308 46.064 26.395 46.121 26.445 C 47.462 27.641 49.11 28.274 50.889 28.274 C 53.405 28.274 55.032 26.899 55.032 24.771 C 55.036 22.974 53.961 21.98 51.326 21.339 L 51.321 21.337 Z M 60.725 19.204 C 59.634 19.204 58.739 19.634 58.001 20.514 L 58.001 19.522 C 58.001 19.444 57.938 19.381 57.86 19.381 L 55.923 19.381 C 55.845 19.381 55.781 19.444 55.781 19.522 L 55.781 30.532 C 55.781 30.61 55.846 30.674 55.923 30.674 L 57.86 30.674 C 57.938 30.674 58.001 30.609 58.001 30.532 L 58.001 27.057 C 58.739 27.885 59.634 28.29 60.725 28.29 C 62.751 28.29 64.803 26.73 64.803 23.748 C 64.807 20.764 62.754 19.203 60.727 19.203 Z M 62.551 23.748 C 62.551 25.266 61.616 26.326 60.277 26.326 C 58.936 26.326 57.953 25.218 57.953 23.748 C 57.953 22.277 58.952 21.169 60.277 21.169 C 61.594 21.169 62.551 22.253 62.551 23.747 Z M 70.062 19.204 C 67.452 19.204 65.406 21.213 65.406 23.78 C 65.406 26.347 67.438 28.307 70.029 28.307 C 72.622 28.307 74.7 26.304 74.7 23.748 C 74.7 21.19 72.663 19.204 70.062 19.204 Z M 70.062 26.341 C 68.672 26.341 67.626 25.225 67.626 23.747 C 67.626 22.268 68.638 21.184 70.029 21.184 C 71.422 21.184 72.48 22.299 72.48 23.779 C 72.48 25.26 71.464 26.341 70.062 26.341 Z M 80.274 19.381 L 78.142 19.381 L 78.142 17.202 C 78.142 17.124 78.079 17.061 78.001 17.06 L 76.065 17.06 C 75.986 17.06 75.923 17.124 75.923 17.202 L 75.923 19.382 L 74.992 19.382 C 74.914 19.382 74.85 19.445 74.85 19.523 L 74.85 21.188 C 74.85 21.266 74.914 21.329 74.992 21.329 L 75.923 21.329 L 75.923 25.636 C 75.923 27.376 76.789 28.259 78.497 28.259 C 79.192 28.259 79.769 28.115 80.311 27.808 C 80.356 27.783 80.383 27.736 80.383 27.685 L 80.383 26.099 C 80.383 26.05 80.358 26.005 80.316 25.979 C 80.274 25.953 80.222 25.95 80.178 25.973 C 79.827 26.155 79.437 26.249 79.041 26.247 C 78.42 26.247 78.142 25.965 78.142 25.332 L 78.142 21.33 L 80.274 21.33 C 80.352 21.33 80.414 21.266 80.414 21.189 L 80.414 19.523 C 80.415 19.486 80.401 19.45 80.375 19.423 C 80.349 19.397 80.314 19.382 80.276 19.382 L 80.274 19.382 Z M 87.698 19.39 L 87.698 19.122 C 87.698 18.335 88.001 17.983 88.678 17.983 C 89.082 17.983 89.406 18.064 89.769 18.186 C 89.812 18.2 89.86 18.192 89.897 18.166 C 89.933 18.139 89.955 18.096 89.955 18.05 L 89.955 16.418 C 89.955 16.356 89.914 16.3 89.855 16.282 C 89.333 16.123 88.79 16.045 88.245 16.051 C 86.456 16.051 85.511 17.059 85.511 18.963 L 85.511 19.372 L 84.581 19.372 C 84.503 19.372 84.439 19.436 84.439 19.514 L 84.439 21.188 C 84.439 21.266 84.503 21.329 84.58 21.329 L 85.511 21.329 L 85.511 27.972 C 85.511 28.051 85.574 28.114 85.652 28.114 L 87.589 28.114 C 87.667 28.114 87.731 28.05 87.731 27.973 L 87.731 21.33 L 89.539 21.33 L 92.309 27.971 C 91.994 28.669 91.685 28.808 91.263 28.808 C 90.923 28.808 90.563 28.706 90.196 28.504 C 90.161 28.486 90.12 28.482 90.083 28.494 C 90.046 28.507 90.015 28.535 89.999 28.571 L 89.342 30.01 C 89.31 30.078 89.337 30.159 89.404 30.194 C 90.089 30.565 90.707 30.723 91.472 30.723 C 92.902 30.723 93.692 30.057 94.389 28.265 L 97.749 19.583 C 97.765 19.54 97.759 19.491 97.733 19.453 C 97.707 19.414 97.664 19.391 97.618 19.39 L 95.601 19.39 C 95.54 19.39 95.487 19.429 95.467 19.486 L 93.402 25.385 L 91.139 19.481 C 91.118 19.426 91.066 19.39 91.007 19.39 L 87.698 19.39 L 87.699 19.39 Z M 83.394 19.381 L 81.457 19.381 C 81.378 19.381 81.315 19.445 81.315 19.523 L 81.315 27.973 C 81.315 28.051 81.38 28.114 81.457 28.114 L 83.394 28.114 C 83.472 28.114 83.536 28.05 83.536 27.973 L 83.536 19.522 C 83.536 19.444 83.473 19.381 83.394 19.381 Z M 82.437 15.534 C 81.669 15.533 81.047 16.155 81.046 16.922 C 81.045 17.689 81.667 18.312 82.434 18.313 C 83.201 18.314 83.824 17.692 83.825 16.925 C 83.826 16.158 83.205 15.535 82.438 15.534 Z" fill="rgb(60,60,67)"></path></svg>