<svg xmlns="http://www.w3.org/2000/svg" xmlns:xlink="http://www.w3.org/1999/xlink" viewBox="0 0 115 46"><path d="M 26.618 19.008 C 28.528 20.379 30.821 21.115 33.172 21.112 L 33.172 16.394 C 32.709 16.394 32.247 16.346 31.794 16.25 L 31.794 19.962 C 29.35 19.962 27.088 19.182 25.241 17.859 L 25.241 27.487 C 25.241 32.302 21.349 36.207 16.548 36.207 C 14.824 36.209 13.139 35.696 11.709 34.733 C 13.341 36.413 15.583 37.359 17.925 37.357 C 22.728 37.357 26.62 33.452 26.62 28.636 L 26.62 19.008 Z M 28.317 14.249 C 27.345 13.186 26.748 11.834 26.618 10.4 L 26.618 9.792 L 25.313 9.792 C 25.637 11.636 26.728 13.256 28.315 14.249 Z M 14.744 31.037 C 14.216 30.343 13.932 29.494 13.934 28.622 C 13.931 26.423 15.711 24.637 17.911 24.634 C 18.319 24.634 18.727 24.696 19.116 24.822 L 19.116 19.998 C 18.66 19.935 18.2 19.908 17.74 19.918 L 17.74 23.672 C 16.529 23.288 15.208 23.506 14.184 24.257 C 13.16 25.008 12.555 26.202 12.556 27.472 C 12.556 29.031 13.447 30.378 14.744 31.037 Z" fill="rgb(60,60,67)"></path><path d="M 25.241 17.861 C 27.151 19.232 29.443 19.968 31.794 19.965 L 31.794 16.252 C 30.454 15.964 29.237 15.263 28.315 14.249 C 26.728 13.256 25.637 11.637 25.313 9.793 L 21.887 9.793 L 21.887 28.638 C 21.883 30.832 20.105 32.61 17.911 32.613 C 16.667 32.613 15.496 32.031 14.746 31.04 C 13.403 30.36 12.556 28.982 12.557 27.477 C 12.556 26.206 13.16 25.012 14.185 24.261 C 15.209 23.51 16.53 23.292 17.741 23.675 L 17.741 19.922 C 13.025 20.019 9.231 23.885 9.231 28.64 C 9.228 30.918 10.117 33.107 11.71 34.736 C 13.14 35.699 14.825 36.213 16.549 36.21 C 21.351 36.21 25.242 32.306 25.242 27.491 L 25.242 17.861 Z" fill="rgb(60,60,67)"></path><path d="M 31.795 16.249 L 31.795 15.244 C 30.564 15.245 29.358 14.9 28.315 14.247 C 29.237 15.261 30.454 15.961 31.794 16.249 Z M 25.313 9.791 C 25.282 9.611 25.258 9.431 25.241 9.25 L 25.241 8.643 L 20.51 8.643 L 20.51 27.488 C 20.506 29.682 18.728 31.459 16.534 31.463 C 15.913 31.464 15.3 31.318 14.746 31.037 C 15.496 32.029 16.669 32.611 17.912 32.61 C 20.106 32.606 21.884 30.83 21.889 28.636 L 21.889 9.792 L 25.315 9.792 L 25.313 9.792 Z M 17.741 19.917 L 17.741 18.848 C 17.346 18.793 16.947 18.765 16.548 18.765 C 11.746 18.765 7.854 22.671 7.854 27.487 C 7.851 30.393 9.296 33.11 11.707 34.733 C 10.115 33.103 9.226 30.914 9.229 28.636 C 9.229 23.88 13.023 20.016 17.739 19.917 L 17.74 19.917 Z M 86.612 32.261 C 90.046 32.261 92.833 29.489 92.833 26.069 C 92.833 22.649 90.046 19.877 86.612 19.877 L 85.675 19.877 C 89.109 19.877 91.895 22.649 91.895 26.068 C 91.895 29.489 89.109 32.261 85.675 32.261 Z M 85.589 19.875 L 84.652 19.875 C 81.217 19.875 78.431 22.647 78.431 26.066 C 78.431 29.487 81.217 32.259 84.652 32.259 L 85.589 32.259 C 82.152 32.259 79.368 29.487 79.368 26.067 C 79.368 22.647 82.154 19.875 85.589 19.875 Z M 38.297 17.076 L 38.297 20.215 L 41.959 20.215 L 41.959 32.175 L 45.625 32.175 L 45.625 20.298 L 48.607 20.298 L 49.629 17.074 L 38.297 17.074 Z M 68.291 17.076 L 68.291 20.215 L 71.953 20.215 L 71.953 32.175 L 75.618 32.175 L 75.618 20.298 L 78.6 20.298 L 79.623 17.074 L 68.292 17.074 L 68.292 17.076 Z M 50.311 18.858 C 50.312 18.385 50.501 17.931 50.836 17.597 C 51.172 17.262 51.626 17.075 52.1 17.076 C 53.088 17.076 53.89 17.875 53.89 18.858 C 53.889 19.332 53.7 19.786 53.364 20.12 C 53.028 20.454 52.573 20.641 52.1 20.639 C 51.626 20.64 51.172 20.453 50.836 20.119 C 50.501 19.785 50.312 19.332 50.311 18.858 Z M 50.311 21.913 L 53.888 21.913 L 53.888 32.177 L 50.311 32.177 L 50.311 21.912 Z M 55.424 17.076 L 55.424 32.177 L 59.002 32.177 L 59.002 28.274 L 60.111 27.256 L 63.604 32.261 L 67.438 32.261 L 62.409 24.966 L 66.925 20.555 L 62.578 20.555 L 59 24.118 L 59 17.075 L 55.421 17.075 L 55.423 17.075 Z M 94.024 17.076 L 94.024 32.177 L 97.603 32.177 L 97.603 28.274 L 98.71 27.256 L 102.205 32.261 L 106.038 32.261 L 101.01 24.966 L 105.526 20.555 L 101.18 20.555 L 97.601 24.118 L 97.601 17.075 L 94.022 17.075 L 94.024 17.075 Z" fill="rgb(60,60,67)"></path><path d="M 85.674 32.261 C 89.109 32.261 91.895 29.489 91.895 26.069 C 91.895 22.649 89.109 19.877 85.675 19.877 L 85.589 19.877 C 82.154 19.877 79.368 22.649 79.368 26.068 C 79.368 29.489 82.154 32.261 85.589 32.261 Z M 82.606 26.069 C 82.608 25.269 82.928 24.502 83.495 23.937 C 84.063 23.372 84.831 23.056 85.632 23.058 C 87.298 23.054 88.653 24.402 88.657 26.069 C 88.655 26.87 88.335 27.637 87.768 28.201 C 87.201 28.766 86.432 29.082 85.632 29.08 C 84.831 29.082 84.062 28.766 83.495 28.201 C 82.927 27.636 82.608 26.869 82.606 26.068 Z" fill="rgb(60,60,67)"></path></svg>