<svg xmlns="http://www.w3.org/2000/svg" xmlns:xlink="http://www.w3.org/1999/xlink" viewBox="0 0 115 46"><path d="M 39.968 16.203 C 39.621 14.919 38.618 13.916 37.334 13.569 C 35.011 12.948 25.696 12.948 25.696 12.948 C 25.696 12.948 16.385 12.948 14.058 13.57 C 12.773 13.915 11.769 14.918 11.423 16.203 C 10.802 18.526 10.802 23.374 10.802 23.374 C 10.802 23.374 10.802 28.222 11.423 30.543 C 11.77 31.827 12.773 32.831 14.058 33.177 C 16.385 33.799 25.696 33.799 25.696 33.799 C 25.696 33.799 35.011 33.799 37.334 33.177 C 38.618 32.83 39.621 31.827 39.968 30.543 C 40.589 28.22 40.589 23.374 40.589 23.374 C 40.589 23.374 40.589 18.525 39.968 16.205 Z" fill="rgb(60,60,67)"></path><path d="M 22.718 18.905 L 22.718 27.843 L 30.458 23.374 Z" fill="rgb(29,29,32)"></path><path d="M 58.862 19.582 C 58.279 19.185 57.506 18.986 56.54 18.986 C 55.573 18.986 54.768 19.185 54.166 19.573 C 53.564 19.962 53.12 20.582 52.834 21.435 C 52.549 22.289 52.406 23.418 52.406 24.824 L 52.406 26.72 C 52.406 28.112 52.534 29.226 52.781 30.066 C 53.028 30.905 53.449 31.52 54.037 31.918 C 54.624 32.316 55.439 32.516 56.472 32.509 C 57.482 32.509 58.284 32.31 58.871 31.921 C 59.463 31.533 59.891 30.913 60.15 30.068 C 60.412 29.225 60.543 28.107 60.543 26.712 L 60.543 24.817 C 60.543 23.416 60.41 22.287 60.141 21.445 C 59.871 20.602 59.445 19.981 58.863 19.583 Z M 57.587 27.787 C 57.587 28.749 57.502 29.444 57.34 29.871 C 57.174 30.297 56.891 30.51 56.472 30.51 C 56.055 30.51 55.776 30.297 55.62 29.871 C 55.463 29.45 55.388 28.754 55.388 27.787 L 55.388 23.716 C 55.388 22.777 55.473 22.09 55.635 21.66 C 55.801 21.227 56.081 21.01 56.479 21.01 C 56.876 21.01 57.18 21.227 57.342 21.66 C 57.507 22.096 57.588 22.778 57.588 23.716 L 57.588 27.787 Z M 67.096 29.619 C 66.98 29.862 66.799 30.069 66.574 30.216 C 66.358 30.366 66.102 30.447 65.839 30.448 C 65.541 30.448 65.327 30.32 65.2 30.073 C 65.073 29.826 65.011 29.41 65.011 28.826 L 65.011 19.24 L 62.072 19.24 L 62.072 28.993 C 62.072 30.203 62.277 31.089 62.69 31.655 C 63.102 32.225 63.742 32.509 64.61 32.509 C 65.856 32.509 66.794 31.907 67.42 30.699 L 67.482 30.699 L 67.739 32.295 L 70.036 32.295 L 70.036 19.24 L 67.097 19.24 L 67.097 29.618 L 67.095 29.619 Z M 50.241 14.42 L 49.027 19.917 C 48.686 21.524 48.467 22.666 48.368 23.347 L 48.283 23.347 C 48.102 22.19 47.882 21.04 47.624 19.898 L 46.453 14.425 L 43.534 14.425 L 46.881 26.504 L 46.881 32.299 L 49.776 32.299 L 49.776 26.503 L 53.159 14.42 L 50.24 14.42 L 50.242 14.42 Z M 82.173 29.619 C 82.057 29.863 81.877 30.069 81.652 30.216 C 81.42 30.372 81.173 30.448 80.916 30.448 C 80.619 30.448 80.405 30.32 80.277 30.073 C 80.15 29.826 80.088 29.41 80.088 28.826 L 80.088 19.24 L 77.151 19.24 L 77.151 28.993 C 77.151 30.203 77.355 31.089 77.768 31.655 C 78.181 32.225 78.821 32.509 79.689 32.509 C 80.935 32.509 81.872 31.907 82.498 30.699 L 82.561 30.699 L 82.817 32.295 L 85.115 32.295 L 85.115 19.24 L 82.174 19.24 L 82.174 29.618 Z M 99.275 26.748 L 104.198 26.748 L 104.198 24.512 C 104.198 23.136 104.085 22.055 103.867 21.275 C 103.644 20.493 103.265 19.92 102.724 19.55 C 102.183 19.18 101.412 18.995 100.402 18.995 C 98.939 18.995 97.905 19.446 97.303 20.346 C 96.701 21.25 96.399 22.677 96.399 24.639 L 96.399 26.919 C 96.399 28.824 96.687 30.227 97.271 31.136 C 97.851 32.047 98.867 32.501 100.317 32.501 C 101.527 32.501 102.459 32.203 103.118 31.606 C 103.777 31.009 104.108 30.109 104.108 28.9 C 104.11 28.743 104.103 28.587 104.088 28.431 L 101.552 28.283 C 101.539 29.078 101.448 29.647 101.286 29.987 C 101.126 30.328 100.824 30.499 100.382 30.499 C 100.056 30.499 99.814 30.4 99.656 30.21 C 99.501 30.021 99.395 29.713 99.349 29.295 C 99.297 28.873 99.273 28.249 99.273 27.409 L 99.273 26.746 Z M 99.275 25.005 L 99.275 24.066 C 99.275 23.218 99.3 22.578 99.352 22.162 C 99.403 21.745 99.503 21.442 99.65 21.257 C 99.798 21.072 100.03 20.977 100.342 20.982 C 100.655 20.982 100.887 21.072 101.033 21.247 C 101.182 21.422 101.284 21.73 101.342 22.163 C 101.397 22.595 101.426 23.23 101.426 24.068 L 101.426 25.007 L 99.275 25.007 Z M 93.978 19.541 C 93.581 19.171 93.035 18.986 92.339 18.986 C 91.798 18.986 91.295 19.137 90.826 19.444 C 90.357 19.748 89.998 20.15 89.74 20.649 L 89.717 20.649 L 89.717 13.77 L 86.883 13.77 L 86.883 32.3 L 89.309 32.3 L 89.607 31.065 L 89.67 31.065 C 89.897 31.506 90.238 31.851 90.694 32.108 C 91.155 32.366 91.677 32.499 92.206 32.492 C 93.202 32.492 93.932 32.033 94.399 31.118 C 94.869 30.203 95.1 28.772 95.1 26.824 L 95.1 24.759 C 95.104 23.299 95.015 22.156 94.839 21.333 C 94.659 20.51 94.375 19.912 93.977 19.543 Z M 92.026 28.895 C 91.949 29.436 91.818 29.818 91.633 30.047 C 91.448 30.275 91.201 30.388 90.888 30.388 C 90.399 30.398 89.946 30.135 89.713 29.705 L 89.713 22.289 C 89.812 21.933 89.983 21.645 90.224 21.417 C 90.467 21.189 90.727 21.076 91.011 21.076 C 91.309 21.076 91.541 21.195 91.703 21.426 C 91.863 21.658 91.976 22.056 92.043 22.606 C 92.105 23.161 92.138 23.948 92.138 24.971 L 92.138 26.658 L 92.143 26.658 C 92.143 27.613 92.105 28.355 92.025 28.896 Z" fill="rgb(60,60,67)"></path><path d="M 78.02 14.427 L 69.308 14.427 L 69.308 16.791 L 72.227 16.791 L 72.227 32.298 L 75.105 32.298 L 75.105 16.791 L 78.02 16.791 Z" fill="rgb(60,60,67)"></path></svg>