<svg xmlns="http://www.w3.org/2000/svg" width="292" height="188" fill="none"><g clip-path="url(#a)"><g filter="url(#b)"><path fill="#1A1A1A" fill-rule="evenodd" d="M22 2C10.954 2 2 10.954 2 22v144c0 11.046 8.954 20 20 20h266a2 2 0 0 0 2-2V93H189c-13.255 0-24-10.745-24-24V2H22z" clip-rule="evenodd"/></g><mask id="c" width="292" height="188" x="0" y="0" maskUnits="userSpaceOnUse" style="mask-type:luminance"><path fill="#fff" d="M292 0H0v188h292V0z"/><path fill="#000" fill-rule="evenodd" d="M22 2C10.954 2 2 10.954 2 22v144c0 11.046 8.954 20 20 20h266a2 2 0 0 0 2-2V93H189c-13.255 0-24-10.745-24-24V2H22z" clip-rule="evenodd"/></mask><g mask="url(#c)"><path fill="#0F0F0F" d="M290 93h1.5v-1.5H290V93zM165 2h1.5V.5H165V2zM3.5 22C3.5 11.783 11.783 3.5 22 3.5v-3C10.126.5.5 10.126.5 22h3zm0 144V22h-3v144h3zM22 184.5c-10.217 0-18.5-8.283-18.5-18.5h-3c0 11.874 9.626 21.5 21.5 21.5v-3zm266 0H22v3h266v-3zm.5-.5a.5.5 0 0 1-.5.5v3a3.5 3.5 0 0 0 3.5-3.5h-3zm0-91v91h3V93h-3zm1.5-1.5H189v3h101v-3zm-101 0c-12.426 0-22.5-10.074-22.5-22.5h-3c0 14.083 11.417 25.5 25.5 25.5v-3zM166.5 69V2h-3v67h3zM22 3.5h143v-3H22v3z"/></g></g><defs><clipPath id="a"><path fill="#fff" d="M0 0h292v188H0z"/></clipPath><filter id="b" width="290" height="187" x="2" y="1" color-interpolation-filters="sRGB" filterUnits="userSpaceOnUse"><feFlood flood-opacity="0" result="BackgroundImageFix"/><feBlend in="SourceGraphic" in2="BackgroundImageFix" result="shape"/><feColorMatrix in="SourceAlpha" result="hardAlpha" values="0 0 0 0 0 0 0 0 0 0 0 0 0 0 0 0 0 0 127 0"/><feOffset dx="2" dy="2"/><feGaussianBlur stdDeviation="1"/><feComposite in2="hardAlpha" k2="-1" k3="1" operator="arithmetic"/><feColorMatrix values="0 0 0 0 0.2 0 0 0 0 0.2 0 0 0 0 0.2 0 0 0 0.4 0"/><feBlend in2="shape" result="effect1_innerShadow_520_585"/><feColorMatrix in="SourceAlpha" result="hardAlpha" values="0 0 0 0 0 0 0 0 0 0 0 0 0 0 0 0 0 0 127 0"/><feOffset dy="-2"/><feGaussianBlur stdDeviation=".5"/><feComposite in2="hardAlpha" k2="-1" k3="1" operator="arithmetic"/><feColorMatrix values="0 0 0 0 0.12 0 0 0 0 0.12 0 0 0 0 0.12 0 0 0 1 0"/><feBlend in2="effect1_innerShadow_520_585" result="effect2_innerShadow_520_585"/></filter></defs></svg>